<svg width="16" height="16" viewBox="0 0 16 16" fill="none" xmlns="http://www.w3.org/2000/svg">
<path fill-rule="evenodd" clip-rule="evenodd" d="M8.00015 1.33325C8.87563 1.33325 9.74254 1.50568 10.5514 1.84071C11.3602 2.17574 12.0952 2.6668 12.7142 3.28586C13.3333 3.90492 13.8243 4.63984 14.1594 5.44868C14.4944 6.25752 14.6668 7.12443 14.6668 7.99991C14.6668 11.6818 11.6821 14.6666 8.00015 14.6666C4.31828 14.6666 1.3335 11.6818 1.3335 7.99991C1.3335 4.31803 4.31828 1.33325 8.00015 1.33325ZM8.66684 8.6666H7.3335C5.68303 8.6666 4.26606 9.66619 3.6549 11.0931C4.6219 12.4491 6.20778 13.3333 8.00015 13.3333C9.79253 13.3333 11.3784 12.4491 12.3454 11.093C11.7343 9.66619 10.3173 8.6666 8.66684 8.6666ZM8.00015 3.33325C6.89559 3.33325 6.00015 4.22869 6.00015 5.33325C6.00015 6.43781 6.89559 7.33325 8.00015 7.33325C9.10472 7.33325 10.0002 6.43781 10.0002 5.33325C10.0002 4.22869 9.10475 3.33325 8.00015 3.33325Z" fill="#7D6BEE"/>
</svg>
