<svg width="24" height="24" viewBox="0 0 24 24" fill="none" xmlns="http://www.w3.org/2000/svg">
<path fill-rule="evenodd" clip-rule="evenodd" d="M3.6 2.25C3.24196 2.25 2.89858 2.39223 2.64541 2.64541C2.39223 2.89858 2.25 3.24196 2.25 3.6V20.4C2.25 21.146 2.854 21.75 3.6 21.75H20.4C20.5773 21.75 20.7528 21.7151 20.9166 21.6472C21.0804 21.5794 21.2292 21.48 21.3546 21.3546C21.48 21.2292 21.5794 21.0804 21.6472 20.9166C21.7151 20.7528 21.75 20.5773 21.75 20.4V3.6C21.75 3.42272 21.7151 3.24717 21.6472 3.08338C21.5794 2.91959 21.48 2.77076 21.3546 2.64541C21.2292 2.52005 21.0804 2.42061 20.9166 2.35276C20.7528 2.28492 20.5773 2.25 20.4 2.25H3.6ZM16.75 8C16.75 7.80109 16.671 7.61032 16.5303 7.46967C16.3897 7.32902 16.1989 7.25 16 7.25C15.8011 7.25 15.6103 7.32902 15.4697 7.46967C15.329 7.61032 15.25 7.80109 15.25 8V16C15.25 16.1989 15.329 16.3897 15.4697 16.5303C15.6103 16.671 15.8011 16.75 16 16.75C16.1989 16.75 16.3897 16.671 16.5303 16.5303C16.671 16.3897 16.75 16.1989 16.75 16V8ZM12 10.25C12.1989 10.25 12.3897 10.329 12.5303 10.4697C12.671 10.6103 12.75 10.8011 12.75 11V16C12.75 16.1989 12.671 16.3897 12.5303 16.5303C12.3897 16.671 12.1989 16.75 12 16.75C11.8011 16.75 11.6103 16.671 11.4697 16.5303C11.329 16.3897 11.25 16.1989 11.25 16V11C11.25 10.8011 11.329 10.6103 11.4697 10.4697C11.6103 10.329 11.8011 10.25 12 10.25ZM8.75 13C8.75 12.8011 8.67098 12.6103 8.53033 12.4697C8.38968 12.329 8.19891 12.25 8 12.25C7.80109 12.25 7.61032 12.329 7.46967 12.4697C7.32902 12.6103 7.25 12.8011 7.25 13V16C7.25 16.1989 7.32902 16.3897 7.46967 16.5303C7.61032 16.671 7.80109 16.75 8 16.75C8.19891 16.75 8.38968 16.671 8.53033 16.5303C8.67098 16.3897 8.75 16.1989 8.75 16V13Z" fill="white"/>
</svg>
